<svg fill="currentColor" xmlns="http://www.w3.org/2000/svg" viewBox="0 0 18 18"><path d="M8.907 1.789c2.277 0 2.547.01 3.442.05.832.036 1.282.176 1.582.293.396.153.682.34.978.635.3.3.483.583.636.979.117.3.256.752.293 1.58.04.899.05 1.168.05 3.441 0 2.276-.01 2.546-.05 3.441-.037.832-.176 1.281-.293 1.58-.153.397-.34.683-.636.979-.3.3-.582.482-.979.636-.3.116-.752.256-1.58.292-.9.04-1.17.05-3.443.05-2.277 0-2.547-.01-3.442-.05-.832-.036-1.282-.176-1.581-.292a2.6 2.6 0 0 1-.98-.636 2.6 2.6 0 0 1-.635-.978c-.117-.3-.256-.752-.293-1.581-.04-.899-.05-1.168-.05-3.44 0-2.277.01-2.547.05-3.442.037-.832.176-1.28.293-1.58.153-.396.34-.683.636-.979.3-.3.582-.482.979-.635.3-.117.752-.257 1.58-.293.896-.04 1.166-.05 3.443-.05m0-1.534c-2.314 0-2.603.01-3.512.05C4.489.345 3.867.49 3.328.7a4.2 4.2 0 0 0-1.512.985 4.2 4.2 0 0 0-.985 1.507C.62 3.736.475 4.355.435 5.26c-.04.912-.05 1.201-.05 3.514s.01 2.602.05 3.51c.04.906.186 1.528.396 2.067.22.562.51 1.038.985 1.51.473.473.949.766 1.508.982.543.21 1.162.357 2.068.396.908.04 1.198.05 3.512.05s2.603-.01 3.512-.05c.905-.04 1.528-.186 2.067-.396a4.2 4.2 0 0 0 1.508-.981c.473-.473.766-.949.982-1.508.21-.542.356-1.161.396-2.066.04-.909.05-1.198.05-3.51 0-2.314-.01-2.603-.05-3.512-.04-.905-.186-1.527-.396-2.066a4 4 0 0 0-.975-1.514A4.2 4.2 0 0 0 14.49.704c-.543-.21-1.162-.356-2.068-.396C11.51.265 11.221.255 8.907.255"/><path d="M8.907 4.398a4.38 4.38 0 0 0-4.378 4.376 4.378 4.378 0 0 0 8.756 0 4.38 4.38 0 0 0-4.378-4.376m0 7.214a2.84 2.84 0 1 1 0-5.679 2.84 2.84 0 0 1 0 5.68M14.48 4.225a1.022 1.022 0 1 1-2.044 0 1.022 1.022 0 0 1 2.044 0"/></svg>
