<svg fill="currentColor" xmlns="http://www.w3.org/2000/svg" viewBox="0 0 15 16"><path fill-rule="evenodd" clip-rule="evenodd" d="M1.25.032C.56.032 0 .592 0 1.282v12.5c0 .69.56 1.25 1.25 1.25h12.5c.69 0 1.25-.56 1.25-1.25v-12.5c0-.69-.56-1.25-1.25-1.25zM4.6 3.368c.005.797-.591 1.288-1.299 1.284A1.25 1.25 0 0 1 2.056 3.37c.004-.704.56-1.27 1.284-1.254.733.016 1.265.554 1.26 1.253m3.133 2.299H5.632V12.8h2.22v-.166l-.001-.95c0-.845-.002-1.69.003-2.535a2.4 2.4 0 0 1 .063-.614c.198-.732.856-1.204 1.59-1.088.47.074.782.347.913.791.081.278.117.577.12.866q.013 1.31.008 2.62l-.001.924v.151h2.226v-1.301q-.001-1.411.002-2.824a5 5 0 0 0-.15-1.256c-.155-.612-.477-1.118-1.001-1.484-.372-.26-.78-.428-1.235-.446l-.157-.008c-.233-.013-.47-.026-.693.02-.638.127-1.198.419-1.62.933l-.17.209-.016.02zm-5.498 7.136h2.209V5.672h-2.21z"/></svg>
