<svg fill="currentColor" xmlns="http://www.w3.org/2000/svg" viewBox="0 0 139 38"><path d="m1 36.5 7.325-15.57L1.219 5.798h9.08l3.64 8.816 3.64-8.816h8.684l-7.061 15.044L26.614 36.5h-9.123l-3.903-9.517-3.86 9.517zM27.893 36.5V12.553h6.842V36.5zM60.568 7.026 53.199 36.5H42.842L35.473 7.026h8.505L46.126 17.3l2.105 10.274 4.21-20.548zM57.454 36.5l6.447-25.79h9.063l6.448 25.79H72.08l-.994-4.716h-5.71L64.38 36.5zm10.795-18.716-1.88 9.174h3.722zM80.198 36.5V10.097h11.24q4.225 0 6.413 2.036 2.225 2 2.225 5.281 0 2.036-.943 3.659-.904 1.584-2.64 2.49 1.735.603 2.414 1.96.68 1.32.679 3.244.038 2.15.15 4.15.114 1.961.718 3.583h-7.582q-.49-1.207-.603-3.055-.114-1.848-.114-5.055-.037-1.13-.49-1.66-.453-.565-1.396-.565h-2.49V36.5zm9.77-21.085H87.78v5.771h2.188q1.281 0 1.999-.717.716-.755.716-2.187 0-1.434-.716-2.15-.716-.717-2-.717M101.993 36.5v-35h14.9q5.6 0 8.5 2.7 2.95 2.65 2.95 7 0 2.7-1.25 4.85-1.2 2.1-3.5 3.3 2.3.8 3.2 2.6.9 1.75.9 4.3.05 2.85.2 5.5.15 2.6.95 4.75h-10.05q-.65-1.6-.8-4.05t-.15-6.7q-.05-1.5-.65-2.2-.6-.75-1.85-.75h-3.3v13.7zm12.95-27.95h-2.9v7.65h2.9q1.7 0 2.65-.95.95-1 .95-2.9t-.95-2.85-2.65-.95M130.284 36.5V9.482h7.72V36.5z"/></svg>
