<svg fill="currentColor" xmlns="http://www.w3.org/2000/svg" viewBox="0 0 55 39"><path d="m49.798 37.209-.05-.05v-1.318l.05-.045h2.983l.05.045v1.318l-.05.05zm-.531-4.47-.046.05v.72l.046.05h3.51l.05.049v1.327l-.05.049h-2.983l-.086.029-.837.758-.04.078v1.318l.04.079.837.758.086.029h2.983l.086-.03.837-.757.037-.079v-3.559l-.038-.078-.836-.758-.086-.03h-3.51zm-6.007 5.29.046-.05v-4.375l.045-.05h2.983l.045.05v4.375l.05.05h.815l.045-.05v-4.375l-.037-.078-.836-.758-.086-.03h-3.898l-.05.05v5.195l.05.05h.82zm-3.468-4.475.049.05v3.56l-.05.049h-2.978l-.05-.05v-3.56l.05-.049zm-2.979-.815-.086.029-.837.758-.04.078v3.56l.04.078.837.758.086.028h2.979l.086-.028.836-.758.042-.079v-3.56l-.042-.077-.836-.758-.086-.03zm-2.117 5.29.05-.05v-.721l-.05-.05h-2.501l-.045-.049v-6.83l-.05-.05h-.815l-.046.05v6.83l.037.078.837.758.086.03h2.5zm-6.01-4.475.049.05v1.318l-.05.046h-2.978l-.05-.046v-1.318l.05-.05zm.914 4.474.05-.049v-.721l-.05-.05h-3.893l-.05-.049v-1.33l.05-.046h2.978l.087-.029.836-.758.041-.078V33.6l-.041-.078-.836-.758-.087-.03h-2.978l-.087.03-.836.758-.037.078v3.56l.037.077.836.758.087.03H29.6zm-6.398-5.29h-3.897l-.087.03-.836.758-.037.078v3.56l.037.078.836.758.087.028h3.897l.05-.049v-.721l-.05-.05h-3.897l-.046-.049V33.6l.046-.049h3.897l.05-.05v-.72l-.05-.05zm-8.8 0-.086.03-.837.758-.037.078v4.375l.05.05h.82l.05-.05v-4.375l.044-.05h2.983l.045-.049v-.72l-.045-.05h-2.983zm-6.542 4.47-.05-.049v-1.318l.05-.045h2.983l.05.045v1.318l-.05.05zm-.527-4.47-.05.05v.721l.05.05h3.51l.05.049v1.327l-.05.049H7.86l-.086.029-.837.758-.04.078v1.318l.04.079.837.758.086.029h2.983l.086-.03.837-.757.037-.079v-3.559l-.037-.078-.837-.758-.086-.03h-3.51zm-2.933.816.045.05v3.56l-.045.049H1.417l-.05-.05v-3.56l.05-.049zm-3.032-.865v-2.356l-.05-.05H.503l-.05.05v6.83l.037.079.837.758.086.028h2.983L4.482 38l.836-.758.042-.079v-3.56l-.042-.077-.836-.758-.086-.03H1.417zm52.904-22.291-.156.152h-12.57l-.156.157v11.485l.157.157h12.569l.156.152v2.328l-.156.157h-12.57l-.28-.095-2.698-2.455-.123-.248V10.703l.123-.247 2.698-2.452.28-.094h12.57l.156.152zM22.114 3.881h2.64l.153-.157V.152L24.755 0h-2.64l-.157.152v3.572zM25.06 24.99l-.276-.095-2.703-2.455-.123-.248V8.07l.156-.152h2.64l.153.152v14.127l.157.156h9.656l.153.153v2.327l-.153.157zM13.039 7.918l-.153.152v14.127l-.156.156H3.106l-.152-.156V8.07l-.157-.152H.157L0 8.07v14.127l.124.247 2.702 2.455.28.095H15.68l.157-.157V8.07l-.157-.152z"/></svg>
