<svg fill="currentColor" xmlns="http://www.w3.org/2000/svg" viewBox="0 0 81 57"><path d="m74.267 55.492-.073-.074v-1.966l.073-.068h4.449l.073.068v1.966l-.073.074zm-.792-6.666-.068.073v1.075l.068.074h5.235l.073.074V52.1l-.073.074H74.26l-.129.043-1.247 1.13-.061.117v1.966l.061.117 1.247 1.13.13.044h4.448l.129-.043 1.247-1.131.055-.117v-5.308l-.055-.117-1.248-1.13-.128-.043h-5.235zm-8.958 7.888.068-.073v-6.525l.067-.074H69.1l.068.074v6.525l.074.073h1.216l.068-.073v-6.525l-.055-.117-1.248-1.13-.129-.044h-5.812l-.074.074v7.748l.074.074h1.223zm-5.173-6.672.074.074v5.308l-.074.074h-4.442l-.074-.074v-5.308l.074-.074zm-4.442-1.217-.13.044-1.246 1.13-.062.117v5.308l.062.117 1.247 1.13.129.043h4.442l.129-.043 1.247-1.13.062-.117v-5.308l-.062-.117-1.247-1.13-.13-.044zm-3.158 7.89.074-.074v-1.076l-.074-.073h-3.73l-.067-.074V45.231l-.074-.073h-1.216l-.068.073v10.187l.056.117 1.247 1.13.129.043h3.73zm-8.964-6.673.074.074v1.966l-.074.067h-4.442l-.074-.067v-1.966l.074-.074zm1.364 6.672.074-.073v-1.076l-.074-.073h-5.806l-.074-.074v-1.984l.074-.068h4.442l.129-.043 1.247-1.13.062-.117V50.11l-.062-.117-1.247-1.13-.129-.044h-4.442l-.13.043-1.246 1.13-.056.118v5.308l.056.117 1.247 1.13.129.043h5.806zm-9.542-7.889H28.79l-.129.044-1.247 1.13-.055.117v5.308l.055.117 1.247 1.13.13.043h5.811l.074-.073v-1.076l-.074-.073H28.79l-.067-.074V50.11l.067-.074h5.812l.074-.074v-1.075l-.074-.074zm-13.123 0-.129.044-1.247 1.13-.056.117v6.525l.074.073h1.223l.074-.073v-6.525l.067-.074h4.448l.068-.074v-1.075l-.068-.074h-4.448zm-9.756 6.667-.074-.074v-1.966l.074-.068h4.448l.073.068v1.966l-.073.074zm-.787-6.666-.074.073v1.075l.074.074h5.235l.073.074V52.1l-.073.074h-4.448l-.13.043-1.247 1.13-.061.117v1.966l.061.117 1.248 1.13.129.044h4.448l.129-.043 1.247-1.131.055-.117v-5.308l-.055-.117-1.247-1.13-.13-.043h-5.234zm-4.374 1.216.067.074v5.308l-.067.074H2.114l-.074-.074v-5.308l.074-.074zm-4.522-1.29v-3.515l-.074-.073H.75l-.074.073v10.187l.055.117 1.247 1.13.13.043h4.448l.129-.043 1.247-1.13.061-.117v-5.308l-.061-.117-1.247-1.13-.13-.044H2.115zm78.9-33.245-.234.228H61.961l-.233.233v17.13l.233.233h18.745l.234.227v3.471l-.234.234H61.961l-.418-.142-4.024-3.661-.184-.369v-17.13l.184-.368 4.024-3.655.418-.142h18.745l.234.228zm-47.96-9.72h3.939l.227-.233V.227L36.919 0H32.98l-.233.227v5.327zm4.393 31.482-.411-.141-4.03-3.662-.185-.369V12.036l.233-.227h3.939l.227.227v21.067l.233.234h14.402l.227.227v3.471l-.227.234zm-17.928-25.46-.227.227v21.067l-.233.234H4.633l-.228-.234V12.036l-.233-.227H.233L0 12.036v21.067l.184.369 4.03 3.662.418.141h18.752l.233-.233V12.035l-.233-.227z" /></svg>
