<svg fill="currentColor" xmlns="http://www.w3.org/2000/svg" viewBox="0 0 18 13"><path d="M17.829 2.736s-.17-1.197-.692-1.722C16.477.323 15.737.32 15.4.28 12.972.103 9.329.103 9.329.103h-.006s-3.644 0-6.07.176c-.339.04-1.078.044-1.738.735C.993 1.54.827 2.736.827 2.736S.65 4.142.65 5.546V6.86c0 1.403.173 2.81.173 2.81s.17 1.196.688 1.72c.661.692 1.529.668 1.915.743 1.39.132 5.9.173 5.9.173s3.646-.007 6.073-.18c.339-.04 1.077-.044 1.738-.735.522-.525.692-1.722.692-1.722S18 8.266 18 6.86V5.545c0-1.403-.172-2.81-.172-2.81M7.533 8.456V3.58l4.687 2.446z"/></svg>
