<svg width="1623" height="1462" viewBox="0 0 1623 1462" fill="none" xmlns="http://www.w3.org/2000/svg">
<g clip-path="url(#clip0_5_110)">
<g filter="url(#filter0_g_5_110)">
<ellipse cx="1305.53" cy="730.974" rx="467.011" ry="229.444" transform="rotate(90 1305.53 730.974)" fill="#FF9940"/>
</g>
</g>
<g clip-path="url(#clip1_5_110)">
<g filter="url(#filter1_g_5_110)">
<path d="M1031.69 1299.51C874.694 1299.51 747.423 1044.97 747.423 730.975C747.423 416.982 874.694 162.44 1031.69 162.44C1188.69 162.44 1315.96 416.982 1315.96 730.975C1315.96 1044.97 1188.69 1299.51 1031.69 1299.51Z" fill="#FF9940"/>
</g>
</g>
<g clip-path="url(#clip2_5_110)">
<g filter="url(#filter2_g_5_110)">
<path d="M789.758 1401.03C626.033 1401.03 493.308 1101.04 493.308 730.973C493.308 360.909 626.033 60.9138 789.758 60.9138C953.483 60.9138 1086.21 360.909 1086.21 730.973C1086.21 1101.04 953.483 1401.03 789.758 1401.03Z" fill="#FF9940"/>
</g>
</g>
<g clip-path="url(#clip3_5_110)">
<g filter="url(#filter3_g_5_110)">
<ellipse cx="687.065" cy="730.973" rx="365.487" ry="149.24" transform="rotate(90 687.065 730.973)" fill="#FF9940"/>
</g>
</g>
<g clip-path="url(#clip4_5_110)">
<g filter="url(#filter4_g_5_110)">
<ellipse cx="431.668" cy="730.974" rx="467.011" ry="229.444" transform="rotate(90 431.668 730.974)" fill="#FF9940"/>
</g>
</g>
<g clip-path="url(#clip5_5_110)">
<g filter="url(#filter5_g_5_110)">
<path d="M165.648 1299.51C8.65131 1299.51 -118.62 1044.97 -118.62 730.975C-118.62 416.982 8.65136 162.44 165.648 162.44C322.644 162.44 449.915 416.982 449.915 730.975C449.915 1044.97 322.644 1299.51 165.648 1299.51Z" fill="#FF9940"/>
</g>
</g>
<g clip-path="url(#clip6_5_110)">
<g filter="url(#filter6_g_5_110)">
<path d="M-76.2766 1401.04C-240.002 1401.04 -372.727 1101.04 -372.727 730.978C-372.727 360.914 -240.002 60.9186 -76.2765 60.9186C87.4485 60.9186 220.174 360.914 220.174 730.978C220.174 1101.04 87.4484 1401.04 -76.2766 1401.04Z" fill="#FF9940"/>
</g>
</g>
<defs>
<filter id="filter0_g_5_110" x="986.381" y="174.254" width="638.306" height="1113.44" filterUnits="userSpaceOnUse" color-interpolation-filters="sRGB">
<feFlood flood-opacity="0" result="BackgroundImageFix"/>
<feBlend mode="normal" in="SourceGraphic" in2="BackgroundImageFix" result="shape"/>
<feTurbulence type="fractalNoise" baseFrequency="0.98498803377151489 0.98498803377151489" numOctaves="3" seed="0" />
<feDisplacementMap in="shape" scale="179.41767883300781" xChannelSelector="R" yChannelSelector="G" result="displacedImage" width="100%" height="100%" />
<feMerge result="effect1_texture_5_110">
<feMergeNode in="displacedImage"/>
</feMerge>
</filter>
<filter id="filter1_g_5_110" x="657.714" y="72.7311" width="747.953" height="1316.49" filterUnits="userSpaceOnUse" color-interpolation-filters="sRGB">
<feFlood flood-opacity="0" result="BackgroundImageFix"/>
<feBlend mode="normal" in="SourceGraphic" in2="BackgroundImageFix" result="shape"/>
<feTurbulence type="fractalNoise" baseFrequency="0.98498803377151489 0.98498803377151489" numOctaves="3" seed="0" />
<feDisplacementMap in="shape" scale="179.41767883300781" xChannelSelector="R" yChannelSelector="G" result="displacedImage" width="100%" height="100%" />
<feMerge result="effect1_texture_5_110">
<feMergeNode in="displacedImage"/>
</feMerge>
</filter>
<filter id="filter2_g_5_110" x="403.599" y="-28.795" width="772.318" height="1519.54" filterUnits="userSpaceOnUse" color-interpolation-filters="sRGB">
<feFlood flood-opacity="0" result="BackgroundImageFix"/>
<feBlend mode="normal" in="SourceGraphic" in2="BackgroundImageFix" result="shape"/>
<feTurbulence type="fractalNoise" baseFrequency="0.98498803377151489 0.98498803377151489" numOctaves="3" seed="0" />
<feDisplacementMap in="shape" scale="179.41767883300781" xChannelSelector="R" yChannelSelector="G" result="displacedImage" width="100%" height="100%" />
<feMerge result="effect1_texture_5_110">
<feMergeNode in="displacedImage"/>
</feMerge>
</filter>
<filter id="filter3_g_5_110" x="448.116" y="275.777" width="477.898" height="910.391" filterUnits="userSpaceOnUse" color-interpolation-filters="sRGB">
<feFlood flood-opacity="0" result="BackgroundImageFix"/>
<feBlend mode="normal" in="SourceGraphic" in2="BackgroundImageFix" result="shape"/>
<feTurbulence type="fractalNoise" baseFrequency="0.98498803377151489 0.98498803377151489" numOctaves="3" seed="0" />
<feDisplacementMap in="shape" scale="179.41767883300781" xChannelSelector="R" yChannelSelector="G" result="displacedImage" width="100%" height="100%" />
<feMerge result="effect1_texture_5_110">
<feMergeNode in="displacedImage"/>
</feMerge>
</filter>
<filter id="filter4_g_5_110" x="112.515" y="174.254" width="638.307" height="1113.44" filterUnits="userSpaceOnUse" color-interpolation-filters="sRGB">
<feFlood flood-opacity="0" result="BackgroundImageFix"/>
<feBlend mode="normal" in="SourceGraphic" in2="BackgroundImageFix" result="shape"/>
<feTurbulence type="fractalNoise" baseFrequency="0.98498803377151489 0.98498803377151489" numOctaves="3" seed="0" />
<feDisplacementMap in="shape" scale="179.41767883300781" xChannelSelector="R" yChannelSelector="G" result="displacedImage" width="100%" height="100%" />
<feMerge result="effect1_texture_5_110">
<feMergeNode in="displacedImage"/>
</feMerge>
</filter>
<filter id="filter5_g_5_110" x="-208.328" y="72.7313" width="747.953" height="1316.49" filterUnits="userSpaceOnUse" color-interpolation-filters="sRGB">
<feFlood flood-opacity="0" result="BackgroundImageFix"/>
<feBlend mode="normal" in="SourceGraphic" in2="BackgroundImageFix" result="shape"/>
<feTurbulence type="fractalNoise" baseFrequency="0.98498803377151489 0.98498803377151489" numOctaves="3" seed="0" />
<feDisplacementMap in="shape" scale="179.41767883300781" xChannelSelector="R" yChannelSelector="G" result="displacedImage" width="100%" height="100%" />
<feMerge result="effect1_texture_5_110">
<feMergeNode in="displacedImage"/>
</feMerge>
</filter>
<filter id="filter6_g_5_110" x="-462.436" y="-28.7903" width="772.318" height="1519.54" filterUnits="userSpaceOnUse" color-interpolation-filters="sRGB">
<feFlood flood-opacity="0" result="BackgroundImageFix"/>
<feBlend mode="normal" in="SourceGraphic" in2="BackgroundImageFix" result="shape"/>
<feTurbulence type="fractalNoise" baseFrequency="0.98498803377151489 0.98498803377151489" numOctaves="3" seed="0" />
<feDisplacementMap in="shape" scale="179.41767883300781" xChannelSelector="R" yChannelSelector="G" result="displacedImage" width="100%" height="100%" />
<feMerge result="effect1_texture_5_110">
<feMergeNode in="displacedImage"/>
</feMerge>
</filter>
<clipPath id="clip0_5_110">
<rect width="1462" height="265.713" fill="white" transform="translate(1622.29 0.00012207) rotate(90)"/>
</clipPath>
<clipPath id="clip1_5_110">
<rect width="1462" height="323.728" fill="white" transform="translate(1443.87 0.00012207) rotate(90)"/>
</clipPath>
<clipPath id="clip2_5_110">
<rect width="1462" height="323.728" fill="white" transform="translate(1189.76 0.00012207) rotate(90)"/>
</clipPath>
<clipPath id="clip3_5_110">
<rect width="1462" height="210.017" fill="white" transform="translate(915.493 0.000854492) rotate(90)"/>
</clipPath>
<clipPath id="clip4_5_110">
<rect width="1462" height="265.713" fill="white" transform="translate(748.422 0.000854492) rotate(90)"/>
</clipPath>
<clipPath id="clip5_5_110">
<rect width="1462" height="323.728" fill="white" transform="translate(577.837 0.000854492) rotate(90)"/>
</clipPath>
<clipPath id="clip6_5_110">
<rect width="1462" height="323.728" fill="white" transform="translate(323.729 0.000854492) rotate(90)"/>
</clipPath>
</defs>
</svg>
